<svg version="1.1" id="Layer_1" xmlns="http://www.w3.org/2000/svg" xmlns:xlink="http://www.w3.org/1999/xlink" x="0px" y="0px"
	 width="100%" viewBox="0 0 1080 1080" enable-background="new 0 0 1080 1080" xml:space="preserve">
<path fill="#F2EEE4" opacity="1.000000" stroke="none" 
	d="
M1081.000000,3.000000 
	C1081.000000,362.265411 1081.000000,721.530823 1081.000000,1081.000000 
	C721.969116,1081.000000 362.938202,1081.000000 3.453747,1080.531372 
	C3.000228,721.068237 3.000228,362.073669 3.000228,3.000000 
	C362.827728,3.000000 721.913879,3.000000 1081.000000,3.000000 
M820.499878,773.008362 
	C828.809937,772.602356 837.215393,772.859009 845.413940,771.678711 
	C886.684143,765.737061 923.463806,732.469116 923.536255,684.793518 
	C923.757996,538.798218 923.731506,392.802155 923.517395,246.806808 
	C923.477234,219.410950 912.321472,196.777786 890.804871,179.535233 
	C872.090332,164.538101 850.421265,158.031876 826.723328,158.025131 
	C637.062256,157.971237 447.401154,157.926682 257.740448,158.172241 
	C246.882385,158.186295 235.702728,159.552383 225.229294,162.363083 
	C186.052841,172.876678 158.370193,205.248276 158.215836,246.234207 
	C157.664795,392.561127 157.973557,538.891357 158.047668,685.220337 
	C158.054092,697.886536 161.059418,710.117981 166.804123,721.335144 
	C183.362610,753.667847 210.509384,770.489319 246.346039,772.582214 
	C266.446655,773.756042 286.663910,772.932739 306.828613,773.007385 
	C308.765045,773.014587 310.701508,773.008362 313.187256,773.008362 
	C313.187256,775.528442 313.187256,777.319946 313.187256,779.111389 
	C313.187256,792.777649 313.186829,806.443909 313.187347,820.110168 
	C313.188385,847.109375 313.110901,874.108826 313.221191,901.107605 
	C313.286316,917.048584 326.550537,927.067993 341.789551,922.438293 
	C346.275055,921.075562 350.620605,918.515991 354.397186,915.666016 
	C415.827393,869.307739 477.130341,822.780762 538.593018,776.465698 
	C541.255005,774.459778 545.172485,773.155640 548.508362,773.149109 
	C638.838623,772.972473 729.169373,773.008301 820.499878,773.008362 
z"/>
<path fill="#000000" opacity="1.000000" stroke="none" 
	d="
M1081.000000,2.500001 
	C721.913879,3.000000 362.827728,3.000000 3.000228,3.000000 
	C3.000228,362.073669 3.000228,721.068237 3.000123,1080.531372 
	C2.333351,1080.666870 1.216328,1080.452393 1.090998,1079.976807 
	C0.803609,1078.886108 1.000000,1077.667847 1.000000,1076.501465 
	C1.000000,718.084229 1.000000,359.666962 1.000000,1.000000 
	C3.580156,1.000000 6.164298,1.000000 8.748440,1.000000 
	C364.666290,1.000000 720.584106,0.998770 1076.501953,1.041226 
	C1078.001343,1.041405 1079.500610,1.666668 1081.000000,2.500001 
z"/>
<path fill="#5267A9" opacity="1.000000" stroke="none" 
	d="
M819.999939,773.008362 
	C729.169373,773.008301 638.838623,772.972473 548.508362,773.149109 
	C545.172485,773.155640 541.255005,774.459778 538.593018,776.465698 
	C477.130341,822.780762 415.827393,869.307739 354.397186,915.666016 
	C350.620605,918.515991 346.275055,921.075562 341.789551,922.438293 
	C326.550537,927.067993 313.286316,917.048584 313.221191,901.107605 
	C313.110901,874.108826 313.188385,847.109375 313.187347,820.110168 
	C313.186829,806.443909 313.187256,792.777649 313.187256,779.111389 
	C313.187256,777.319946 313.187256,775.528442 313.187256,773.008362 
	C310.701508,773.008362 308.765045,773.014587 306.828613,773.007385 
	C286.663910,772.932739 266.446655,773.756042 246.346039,772.582214 
	C210.509384,770.489319 183.362610,753.667847 166.804123,721.335144 
	C161.059418,710.117981 158.054092,697.886536 158.047668,685.220337 
	C157.973557,538.891357 157.664795,392.561127 158.215836,246.234207 
	C158.370193,205.248276 186.052841,172.876678 225.229294,162.363083 
	C235.702728,159.552383 246.882385,158.186295 257.740448,158.172241 
	C447.401154,157.926682 637.062256,157.971237 826.723328,158.025131 
	C850.421265,158.031876 872.090332,164.538101 890.804871,179.535233 
	C912.321472,196.777786 923.477234,219.410950 923.517395,246.806808 
	C923.731506,392.802155 923.757996,538.798218 923.536255,684.793518 
	C923.463806,732.469116 886.684143,765.737061 845.413940,771.678711 
	C837.215393,772.859009 828.809937,772.602356 819.999939,773.008362 
M851.067749,685.393982 
	C857.233032,694.347534 863.398376,703.301086 869.767883,712.551270 
	C878.178894,702.722351 880.865662,691.677612 880.879456,680.278015 
	C881.053406,536.638733 881.006653,392.999207 880.916687,249.359802 
	C880.913940,244.917725 880.367432,240.326859 879.168518,236.059906 
	C873.295227,215.156769 854.236206,201.847610 830.069031,201.841904 
	C637.938782,201.796463 445.808411,201.887924 253.678268,201.731644 
	C226.788635,201.709763 202.351685,221.135132 202.506989,252.842651 
	C203.203186,394.979004 202.809494,537.120667 202.814575,679.260437 
	C202.814667,681.926025 202.732956,684.603455 202.943237,687.255249 
	C204.044449,701.142212 210.260681,712.122437 222.116135,721.011536 
	C222.661530,719.979370 222.917816,719.349670 223.294327,718.802795 
	C232.456665,705.494446 241.571777,692.152893 250.858002,678.931458 
	C252.596954,676.455688 251.857498,674.836487 250.383148,672.735352 
	C243.399139,662.781799 236.527283,652.749390 229.643112,642.726074 
	C226.480927,638.121887 223.382294,633.473999 219.914215,628.341919 
	C439.399719,628.341919 658.018066,628.341919 877.438232,628.341919 
	C875.898193,630.710266 874.789124,632.502808 873.595581,634.237366 
	C865.945496,645.354736 858.261841,656.449036 850.618958,667.571350 
	C844.724060,676.149902 844.743530,676.163269 851.067749,685.393982 
M491.037872,756.547180 
	C498.728485,750.697449 506.639191,745.111328 514.048645,738.924927 
	C521.654724,732.574280 530.172729,730.297729 539.916504,730.309875 
	C635.054077,730.428589 730.191772,730.382996 825.329468,730.374573 
	C828.660889,730.374268 832.016113,730.507019 835.318726,730.170410 
	C841.835693,729.506409 848.301697,728.487671 854.347107,724.503052 
	C645.536011,724.503052 437.319183,724.503052 227.894318,724.503052 
	C236.705170,729.286865 245.035629,730.381592 253.616959,730.380127 
	C279.942261,730.375549 306.268005,730.288086 332.592682,730.418823 
	C348.950653,730.500000 357.609619,739.334778 357.615234,755.523193 
	C357.626343,787.346802 357.618622,819.170471 357.618683,850.994080 
	C357.618683,852.866821 357.618683,854.739563 357.618683,857.869568 
	C402.714539,823.621765 446.590668,790.300171 491.037872,756.547180 
M542.573975,678.956787 
	C540.706421,685.348206 538.723816,691.708801 537.004272,698.139832 
	C535.359741,704.290100 533.427490,710.030823 525.911804,711.103760 
	C525.826294,711.115967 525.818726,711.674438 525.739990,712.218933 
	C534.066528,712.218933 542.332947,712.218933 551.990906,712.218933 
	C550.161865,710.988647 549.573975,710.271973 548.917969,710.203003 
	C543.906799,709.676147 543.580200,706.718384 544.737854,702.720947 
	C546.497986,696.643372 548.150208,690.533813 549.782349,684.420227 
	C550.383240,682.169312 551.190796,679.903809 553.997070,680.855835 
	C555.677429,681.425903 557.770874,682.827820 558.317993,684.346130 
	C561.194824,692.329590 563.737854,700.439270 566.179016,708.570496 
	C567.073181,711.549133 568.418030,712.896851 571.759399,712.820312 
	C581.417908,712.598999 591.084900,712.761658 600.748291,712.718872 
	C602.079834,712.712952 603.410034,712.397156 605.588806,712.115051 
	C597.744263,707.092712 597.733093,707.089417 600.310486,698.277954 
	C602.321045,691.404480 604.360413,684.539368 606.393433,677.672485 
	C607.894226,672.603516 609.405334,667.537598 611.259094,661.302307 
	C618.476318,679.611877 625.225769,696.734680 631.975220,713.857483 
	C632.554626,713.746521 633.134094,713.635498 633.713501,713.524536 
	C634.411072,711.367126 635.157532,709.224121 635.798279,707.049927 
	C640.647156,690.596375 645.492371,674.141663 650.298157,657.675476 
	C651.570129,653.317383 653.880432,650.209656 658.774902,649.716858 
	C659.423401,649.651672 660.015747,649.028503 661.978516,647.870544 
	C653.502075,647.281921 646.581360,647.056519 639.535156,648.560486 
	C643.564392,649.995117 647.351868,651.091919 645.837158,656.455139 
	C642.231750,669.221069 638.597412,681.978882 634.554565,696.220276 
	C633.240662,693.217834 632.482239,691.630188 631.841064,689.996460 
	C626.851929,677.283325 621.909546,664.551697 616.879150,651.854980 
	C616.289917,650.367798 615.337524,647.921509 614.411255,647.853333 
	C609.143250,647.465698 603.831970,647.665405 598.535400,647.665405 
	C598.490662,648.217041 598.445923,648.768677 598.401245,649.320312 
	C600.062378,649.786560 601.785461,650.101929 603.371338,650.751953 
	C606.305237,651.954468 608.930359,653.726013 607.850037,657.439453 
	C603.294373,673.099731 598.601440,688.720215 593.932495,704.347473 
	C592.716431,708.418030 589.716858,710.192383 585.666565,710.325256 
	C581.519348,710.461243 577.099060,710.006775 575.346558,705.791321 
	C571.933105,697.580322 569.212769,689.081177 566.254150,680.837341 
	C569.838562,679.177368 572.687256,678.170166 575.209778,676.629089 
	C581.760071,672.627441 584.986633,665.487549 583.577881,658.782166 
	C582.296509,652.682922 577.569092,648.349243 569.761658,647.789978 
	C561.145935,647.172852 552.456238,647.571533 543.799011,647.597412 
	C543.341187,647.598755 542.885315,648.248840 542.295471,648.698242 
	C549.857971,652.856445 549.898438,652.909241 547.571594,661.370605 
	C546.027100,666.987000 544.408508,672.583069 542.573975,678.956787 
M758.960205,670.495972 
	C758.107910,672.662842 757.064148,674.775635 756.433594,677.005249 
	C751.447449,694.636353 759.741943,710.059326 776.345093,713.128479 
	C781.461731,714.074341 786.940002,713.478394 792.212585,713.070435 
	C800.222595,712.450806 805.462280,708.611877 806.152771,699.914612 
	C806.333557,697.637390 807.468750,695.450806 807.995483,693.183105 
	C809.366577,687.279541 811.294678,681.922852 818.495789,681.087280 
	C818.574707,681.078125 818.589600,680.517212 818.649841,680.109070 
	C809.833923,680.109070 801.046509,680.109070 792.259094,680.109070 
	C792.710449,681.304993 793.254028,681.607117 793.835815,681.734436 
	C800.474060,683.187073 801.288391,684.375061 799.616028,690.919617 
	C798.421509,695.594177 797.145081,700.257996 795.622559,704.832520 
	C795.157410,706.230042 794.010986,707.844055 792.740601,708.460876 
	C781.736145,713.803467 769.639038,708.323975 767.016174,696.315613 
	C763.410583,679.807800 768.002075,665.349487 781.053345,654.635803 
	C785.204651,651.228027 791.577637,649.491211 797.105408,649.025452 
	C806.668945,648.219849 811.637329,653.781006 811.932800,663.495117 
	C811.953491,664.174377 812.374268,664.841431 812.609009,665.514160 
	C813.056580,665.548096 813.504150,665.582031 813.951782,665.616028 
	C815.554565,659.445190 817.157349,653.274414 818.750671,647.140198 
	C815.257324,647.731079 812.168274,649.273987 809.901001,648.477539 
	C789.711548,641.385010 767.918091,651.978821 758.960205,670.495972 
M695.778503,707.172974 
	C697.099304,701.523743 698.240479,695.825012 699.781433,690.236572 
	C702.338257,680.963806 705.152100,671.761963 708.214905,661.311157 
	C715.463257,679.644043 722.225769,696.747986 728.988220,713.851929 
	C729.560364,713.748169 730.132446,713.644409 730.704590,713.540710 
	C731.402100,711.386292 732.149231,709.246521 732.789246,707.075134 
	C737.639709,690.617798 742.487976,674.159668 747.292725,657.688904 
	C748.565002,653.327454 750.870667,650.219727 755.766113,649.724976 
	C756.417053,649.659119 757.011658,649.035339 757.908081,648.507507 
	C752.303894,646.646118 739.482239,647.011292 736.691406,648.945496 
	C743.101807,651.543823 743.866882,652.034058 742.826172,655.964294 
	C739.393372,668.928467 735.618103,681.802063 731.974304,694.710388 
	C730.177979,693.149719 729.444153,691.545898 728.801514,689.906433 
	C723.816467,677.188232 718.875854,664.452576 713.840027,651.754578 
	C713.255310,650.280029 712.255188,647.889099 711.307678,647.819153 
	C706.070862,647.432617 700.790588,647.634155 695.525208,647.634155 
	C695.502869,648.135803 695.480591,648.637512 695.458313,649.139160 
	C696.317932,649.462097 697.160034,649.846497 698.040100,650.098022 
	C704.927307,652.066895 705.951111,653.735291 704.016052,660.428223 
	C700.547791,672.424255 696.969299,684.388428 693.500183,696.384277 
	C691.560974,703.089722 690.214539,710.210022 681.375122,711.278076 
	C681.310303,711.285889 681.279602,711.575989 681.125366,712.099487 
	C688.043152,712.099487 694.839783,712.099487 703.056091,712.099487 
	C699.798706,710.207092 697.893372,709.100159 695.778503,707.172974 
M437.506775,664.163757 
	C438.474823,660.630676 439.241364,657.022217 440.520782,653.605713 
	C440.965851,652.417175 442.662994,650.934082 443.816589,650.909363 
	C448.289978,650.813782 452.806274,651.000000 457.246857,651.557434 
	C462.179535,652.176575 465.096710,654.928772 464.701630,660.331177 
	C464.650024,661.036621 465.012482,661.772400 465.183167,662.494080 
	C465.662140,662.579407 466.141083,662.664734 466.620026,662.750000 
	C468.011292,657.925598 469.402527,653.101196 470.887207,647.952759 
	C454.833771,647.952759 439.545319,647.952759 423.341034,647.952759 
	C431.502960,652.792419 431.599152,653.107910 429.002167,662.014404 
	C425.367798,674.478638 421.598206,686.906799 418.212616,699.438538 
	C416.641602,705.253784 414.580597,710.141846 407.762207,711.015137 
	C407.626373,711.032532 407.556244,711.562622 407.414703,711.971130 
	C407.805511,712.202393 408.206116,712.646301 408.608307,712.647705 
	C423.936920,712.701538 439.265808,712.742676 454.594055,712.667114 
	C455.552948,712.662415 457.082886,711.917969 457.370544,711.151306 
	C459.327423,705.936401 461.022156,700.623169 463.263123,693.971436 
	C461.143951,695.231873 460.038605,695.494690 459.684937,696.158142 
	C453.370544,708.005188 442.596863,709.850037 430.657623,709.424988 
	C426.358704,709.271973 424.937195,707.559875 426.188324,703.443604 
	C428.028259,697.390015 430.147614,691.385620 431.443420,685.212341 
	C432.817719,678.665100 437.528198,680.886841 441.253021,680.979614 
	C445.425629,681.083435 447.555084,683.549316 447.190033,687.909790 
	C447.065002,689.403381 447.170166,690.916260 447.170166,692.420288 
	C447.820648,692.516052 448.471161,692.611755 449.121643,692.707520 
	C451.219452,684.851929 453.317291,676.996338 455.415131,669.140808 
	C454.854187,668.745422 454.293243,668.350037 453.732300,667.954712 
	C450.023468,677.210815 442.980713,678.238220 434.218750,676.857056 
	C435.302795,672.609680 436.280945,668.777405 437.506775,664.163757 
M291.723846,665.318542 
	C292.063263,664.032837 292.394592,662.744873 292.743378,661.461731 
	C295.919189,649.778259 295.920074,649.778442 308.127075,650.900940 
	C316.554718,651.675964 318.186554,653.263672 319.295502,661.644836 
	C319.339752,661.979187 319.955841,662.237854 321.183868,663.270203 
	C322.643524,657.908875 323.948700,653.115051 325.303955,648.137268 
	C309.320343,648.137268 294.030457,648.137268 278.740601,648.137268 
	C286.012146,651.730347 286.308228,652.096008 284.045319,660.144775 
	C280.354523,673.272095 276.281281,686.293884 272.727936,699.456970 
	C271.158508,705.270874 269.217865,710.199646 262.334106,710.989014 
	C262.237823,711.000122 262.204773,711.562500 262.086578,712.138977 
	C262.652222,712.322937 263.236359,712.677368 263.821472,712.679016 
	C278.802582,712.721558 293.783844,712.741882 308.764923,712.703186 
	C309.678741,712.700867 311.199127,712.413330 311.410278,711.863831 
	C313.535583,706.333435 315.446045,700.720581 317.416901,695.130859 
	C316.923492,694.923279 316.430084,694.715698 315.936676,694.508179 
	C315.357727,695.001404 314.557037,695.379578 314.232605,696.004944 
	C307.928925,708.155823 296.935791,709.889648 284.861725,709.407898 
	C281.008026,709.254211 279.281006,707.989136 280.629150,703.834900 
	C282.374329,698.457397 283.803833,692.977783 285.387207,687.547363 
	C287.536255,680.176758 288.053711,679.849854 295.746674,680.862976 
	C300.601410,681.502319 302.315338,683.755371 301.790009,688.722351 
	C301.655945,689.990173 301.665375,691.273132 301.608887,692.549133 
	C302.245819,692.652710 302.882782,692.756287 303.519745,692.859863 
	C305.729736,684.935181 307.939728,677.010437 310.149719,669.085693 
	C309.604858,668.648926 309.060028,668.212158 308.515167,667.775452 
	C304.616333,677.057983 297.519104,678.406433 288.613220,676.812073 
	C289.628448,673.080811 290.577148,669.594238 291.723846,665.318542 
M505.967194,660.432556 
	C502.448090,665.283936 499.197601,670.360413 495.358246,674.943481 
	C484.939178,687.380615 478.650360,703.417908 462.743500,712.114136 
	C469.921539,712.114136 476.365570,712.114136 483.632843,712.114136 
	C477.314087,707.287781 477.216461,706.481750 481.552948,700.410645 
	C483.004242,698.378906 484.394135,696.286743 486.023346,694.405090 
	C486.938110,693.348633 488.248779,691.995789 489.443176,691.931519 
	C494.533630,691.657837 499.647278,691.815186 505.316559,691.815186 
	C504.231476,700.086731 507.581146,709.527954 495.634460,712.078003 
	C504.037689,712.078003 512.440918,712.078003 522.183228,712.078003 
	C513.142090,707.559875 513.083130,707.554626 513.912354,698.253662 
	C515.345520,682.178040 516.871765,666.110718 518.315125,650.036011 
	C518.416260,648.909607 518.157349,647.750977 518.065857,646.607300 
	C517.577209,646.430298 517.088562,646.253235 516.599915,646.076233 
	C513.192932,650.667542 509.785889,655.258911 505.967194,660.432556 
M374.349670,694.003113 
	C377.561584,682.983643 380.958344,672.013428 383.913177,660.925415 
	C385.578491,654.676270 388.031738,649.711487 395.356903,649.209595 
	C395.503693,649.199585 395.614502,648.664856 395.820496,648.196777 
	C387.005676,648.196777 378.292725,648.196777 369.579773,648.196777 
	C377.088196,651.633606 377.347717,651.961548 375.067596,660.086792 
	C371.518311,672.734741 367.666656,685.298828 364.203430,697.969604 
	C362.466797,704.323242 360.554657,710.176636 352.738861,711.073059 
	C352.641022,711.084290 352.604797,711.633362 352.537201,711.943298 
	C352.781708,712.152954 353.019501,712.535645 353.259491,712.536987 
	C368.066681,712.620361 382.874084,712.691589 397.681366,712.679138 
	C398.552948,712.678406 399.970001,712.191895 400.209747,711.573486 
	C402.321686,706.125671 404.224152,700.596680 406.188629,695.091675 
	C405.715485,694.849060 405.242371,694.606384 404.769257,694.363770 
	C403.957550,695.231201 402.828827,695.960815 402.382416,696.987183 
	C396.980438,709.407043 386.231995,709.889954 375.027313,709.332397 
	C371.917053,709.177673 370.446503,707.679565 371.429382,704.388672 
	C372.380951,701.202698 373.216492,697.981995 374.349670,694.003113 
M665.455261,682.889832 
	C663.958801,688.171814 662.419312,693.442078 660.977173,698.738953 
	C659.344116,704.737305 657.332397,710.316284 649.763733,710.800537 
	C649.538879,710.815002 649.357910,711.514465 649.039612,712.115112 
	C657.843872,712.115112 666.367065,712.115112 676.328735,712.115112 
	C674.510864,710.922607 674.041992,710.444946 673.479492,710.272034 
	C667.067993,708.300964 667.095947,708.322815 669.041321,701.733215 
	C672.670227,689.440857 676.181519,677.113342 679.894043,664.846497 
	C681.882874,658.274841 681.720825,650.148315 690.906677,648.157043 
	C682.810303,648.157043 674.713989,648.157043 666.617615,648.157043 
	C674.050598,651.722412 674.292725,652.132874 671.959412,660.554626 
	C669.960876,667.768433 667.800598,674.937317 665.455261,682.889832 
M335.544220,694.759033 
	C338.699493,694.759033 341.854767,694.766907 345.010010,694.757385 
	C351.069031,694.739136 351.634186,694.127625 351.393311,687.410767 
	C345.131348,687.410767 338.818939,687.760742 332.565277,687.304993 
	C327.122711,686.908264 325.566711,689.441711 325.644684,694.758667 
	C328.694122,694.758667 331.633423,694.758667 335.544220,694.759033 
z"/>
<path fill="#F1EDE4" opacity="1.000000" stroke="none" 
	d="
M850.876343,685.090454 
	C844.743530,676.163269 844.724060,676.149902 850.618958,667.571350 
	C858.261841,656.449036 865.945496,645.354736 873.595581,634.237366 
	C874.789124,632.502808 875.898193,630.710266 877.438232,628.341919 
	C658.018066,628.341919 439.399719,628.341919 219.914215,628.341919 
	C223.382294,633.473999 226.480927,638.121887 229.643112,642.726074 
	C236.527283,652.749390 243.399139,662.781799 250.383148,672.735352 
	C251.857498,674.836487 252.596954,676.455688 250.858002,678.931458 
	C241.571777,692.152893 232.456665,705.494446 223.294327,718.802795 
	C222.917816,719.349670 222.661530,719.979370 222.116135,721.011536 
	C210.260681,712.122437 204.044449,701.142212 202.943237,687.255249 
	C202.732956,684.603455 202.814667,681.926025 202.814575,679.260437 
	C202.809494,537.120667 203.203186,394.979004 202.506989,252.842651 
	C202.351685,221.135132 226.788635,201.709763 253.678268,201.731644 
	C445.808411,201.887924 637.938782,201.796463 830.069031,201.841904 
	C854.236206,201.847610 873.295227,215.156769 879.168518,236.059906 
	C880.367432,240.326859 880.913940,244.917725 880.916687,249.359802 
	C881.006653,392.999207 881.053406,536.638733 880.879456,680.278015 
	C880.865662,691.677612 878.178894,702.722351 869.767883,712.551270 
	C863.398376,703.301086 857.233032,694.347534 850.876343,685.090454 
M595.973206,503.324463 
	C595.055237,508.048767 594.137268,512.773071 593.219360,517.497437 
	C591.858276,516.059265 591.553650,514.779236 591.271606,513.494263 
	C578.914917,457.203308 566.514343,400.921875 554.300171,344.600006 
	C553.410278,340.496582 551.789795,339.218628 547.663269,339.283630 
	C532.835510,339.517242 518.001831,339.363892 503.170380,339.392029 
	C501.588562,339.395050 500.007202,339.629028 498.072693,339.784149 
	C498.428375,341.470184 498.595459,342.588409 498.901672,343.667114 
	C521.598694,423.623077 544.331726,503.568817 566.929016,583.552917 
	C567.903259,587.001038 569.435913,587.934143 572.826843,587.884827 
	C585.489197,587.700623 598.159729,587.636353 610.818726,587.912659 
	C614.876221,588.001160 616.187256,586.526733 616.948303,582.765198 
	C629.136475,522.523193 641.459900,462.308563 653.774048,402.092072 
	C653.975220,401.108429 654.443787,400.179443 655.311890,397.768646 
	C656.024841,401.200470 656.434082,403.098816 656.812683,405.003265 
	C668.634399,464.465729 680.478210,523.923889 692.208801,583.404358 
	C692.893738,586.877380 694.314148,587.952454 697.844299,587.896912 
	C711.339233,587.684631 724.842651,587.648743 738.335815,587.911072 
	C742.322144,587.988586 743.755432,586.472961 744.762024,582.873535 
	C764.948120,510.688843 785.249023,438.536285 805.517456,366.374603 
	C807.972351,357.634399 810.372925,348.878876 812.760864,340.266907 
	C811.851257,339.809479 811.557922,339.533447 811.263550,339.532288 
	C795.268372,339.468414 779.271667,339.329895 763.280396,339.560608 
	C761.926331,339.580170 759.760498,341.889313 759.396423,343.464142 
	C748.103088,392.310638 736.956543,441.191223 725.871521,490.085632 
	C723.748413,499.450256 721.975342,508.894257 720.040771,518.301636 
	C718.722534,516.496765 718.270325,514.747986 717.905151,512.981262 
	C706.239258,456.538544 694.554871,400.099579 682.991028,343.635956 
	C682.314148,340.331207 680.887878,339.294434 677.642151,339.320770 
	C662.311768,339.445190 646.979065,339.453674 631.648987,339.313568 
	C628.440308,339.284210 627.336975,340.491028 626.872803,343.528564 
	C625.967773,349.449982 624.632141,355.305176 623.490906,361.190948 
	C614.359924,408.283234 605.232605,455.376251 595.973206,503.324463 
M456.047424,361.464203 
	C445.947083,350.548676 433.391083,343.278748 419.534363,338.655701 
	C392.213623,329.540619 364.423187,329.467194 336.854187,337.354858 
	C299.547394,348.028595 279.274628,378.871582 280.992157,413.574341 
	C282.297577,439.950958 293.924896,458.657806 318.578003,469.182587 
	C335.590454,476.445465 353.653870,479.523560 371.397797,484.007874 
	C387.659546,488.117584 403.893097,492.584503 419.713226,498.112762 
	C431.006165,502.059021 435.219910,511.582367 433.375671,523.424255 
	C431.341400,536.486511 422.606720,543.394653 410.984802,547.036377 
	C395.297180,551.952087 379.168121,552.577820 363.047546,549.505615 
	C342.014313,545.497131 332.588593,535.895813 328.599670,514.763977 
	C327.921936,511.173492 326.396240,510.258331 322.957062,510.304169 
	C309.630127,510.481873 296.299408,510.365051 282.970154,510.393005 
	C281.533691,510.396027 280.097687,510.627991 278.567169,510.761993 
	C278.567169,513.366943 278.414429,515.522583 278.590057,517.651123 
	C281.223297,549.568298 298.048035,571.804565 327.148163,583.414612 
	C362.795044,597.636658 399.515625,597.889343 435.630402,584.678528 
	C464.946777,573.954529 484.501526,546.359985 483.780823,516.947693 
	C483.107361,489.462036 472.054504,467.125458 445.504028,456.036682 
	C431.780304,450.304962 416.949432,447.171631 402.539642,443.147827 
	C382.984619,437.687317 363.309875,432.652710 343.782837,427.096771 
	C338.132782,425.489197 334.139893,421.216400 331.687347,415.858398 
	C326.314178,404.119598 331.997192,388.905701 343.816010,382.415924 
	C356.991364,375.181244 371.166473,374.359253 385.588440,375.970276 
	C406.191895,378.271881 421.280365,387.305939 424.912537,409.751709 
	C425.404968,412.794861 427.294800,412.830658 429.594055,412.825409 
	C443.756378,412.793060 457.918793,412.814270 472.081146,412.793335 
	C473.034943,412.791931 473.988464,412.591064 475.316315,412.440552 
	C474.942413,393.192322 469.338837,376.270721 456.047424,361.464203 
z"/>
<path fill="#F0ECE3" opacity="1.000000" stroke="none" 
	d="
M490.752350,756.762939 
	C446.590668,790.300171 402.714539,823.621765 357.618683,857.869568 
	C357.618683,854.739563 357.618683,852.866821 357.618683,850.994080 
	C357.618622,819.170471 357.626343,787.346802 357.615234,755.523193 
	C357.609619,739.334778 348.950653,730.500000 332.592682,730.418823 
	C306.268005,730.288086 279.942261,730.375549 253.616959,730.380127 
	C245.035629,730.381592 236.705170,729.286865 227.894318,724.503052 
	C437.319183,724.503052 645.536011,724.503052 854.347107,724.503052 
	C848.301697,728.487671 841.835693,729.506409 835.318726,730.170410 
	C832.016113,730.507019 828.660889,730.374268 825.329468,730.374573 
	C730.191772,730.382996 635.054077,730.428589 539.916504,730.309875 
	C530.172729,730.297729 521.654724,732.574280 514.048645,738.924927 
	C506.639191,745.111328 498.728485,750.697449 490.752350,756.762939 
z"/>
<path fill="#E5E3DF" opacity="1.000000" stroke="none" 
	d="
M542.698547,678.572510 
	C544.408508,672.583069 546.027100,666.987000 547.571594,661.370605 
	C549.898438,652.909241 549.857971,652.856445 542.295471,648.698242 
	C542.885315,648.248840 543.341187,647.598755 543.799011,647.597412 
	C552.456238,647.571533 561.145935,647.172852 569.761658,647.789978 
	C577.569092,648.349243 582.296509,652.682922 583.577881,658.782166 
	C584.986633,665.487549 581.760071,672.627441 575.209778,676.629089 
	C572.687256,678.170166 569.838562,679.177368 566.254150,680.837341 
	C569.212769,689.081177 571.933105,697.580322 575.346558,705.791321 
	C577.099060,710.006775 581.519348,710.461243 585.666565,710.325256 
	C589.716858,710.192383 592.716431,708.418030 593.932495,704.347473 
	C598.601440,688.720215 603.294373,673.099731 607.850037,657.439453 
	C608.930359,653.726013 606.305237,651.954468 603.371338,650.751953 
	C601.785461,650.101929 600.062378,649.786560 598.401245,649.320312 
	C598.445923,648.768677 598.490662,648.217041 598.535400,647.665405 
	C603.831970,647.665405 609.143250,647.465698 614.411255,647.853333 
	C615.337524,647.921509 616.289917,650.367798 616.879150,651.854980 
	C621.909546,664.551697 626.851929,677.283325 631.841064,689.996460 
	C632.482239,691.630188 633.240662,693.217834 634.554565,696.220276 
	C638.597412,681.978882 642.231750,669.221069 645.837158,656.455139 
	C647.351868,651.091919 643.564392,649.995117 639.535156,648.560486 
	C646.581360,647.056519 653.502075,647.281921 661.978516,647.870544 
	C660.015747,649.028503 659.423401,649.651672 658.774902,649.716858 
	C653.880432,650.209656 651.570129,653.317383 650.298157,657.675476 
	C645.492371,674.141663 640.647156,690.596375 635.798279,707.049927 
	C635.157532,709.224121 634.411072,711.367126 633.713501,713.524536 
	C633.134094,713.635498 632.554626,713.746521 631.975220,713.857483 
	C625.225769,696.734680 618.476318,679.611877 611.259094,661.302307 
	C609.405334,667.537598 607.894226,672.603516 606.393433,677.672485 
	C604.360413,684.539368 602.321045,691.404480 600.310486,698.277954 
	C597.733093,707.089417 597.744263,707.092712 605.588806,712.115051 
	C603.410034,712.397156 602.079834,712.712952 600.748291,712.718872 
	C591.084900,712.761658 581.417908,712.598999 571.759399,712.820312 
	C568.418030,712.896851 567.073181,711.549133 566.179016,708.570496 
	C563.737854,700.439270 561.194824,692.329590 558.317993,684.346130 
	C557.770874,682.827820 555.677429,681.425903 553.997070,680.855835 
	C551.190796,679.903809 550.383240,682.169312 549.782349,684.420227 
	C548.150208,690.533813 546.497986,696.643372 544.737854,702.720947 
	C543.580200,706.718384 543.906799,709.676147 548.917969,710.203003 
	C549.573975,710.271973 550.161865,710.988647 551.990906,712.218933 
	C542.332947,712.218933 534.066528,712.218933 525.739990,712.218933 
	C525.818726,711.674438 525.826294,711.115967 525.911804,711.103760 
	C533.427490,710.030823 535.359741,704.290100 537.004272,698.139832 
	C538.723816,691.708801 540.706421,685.348206 542.698547,678.572510 
M573.415710,664.713867 
	C573.064636,661.659668 573.734863,657.777954 572.101868,655.762329 
	C570.095215,653.285645 566.262024,652.096863 563.009827,650.935303 
	C562.001465,650.575195 559.409668,651.824097 559.080383,652.836487 
	C556.544434,660.632996 554.386780,668.552551 552.120667,676.403381 
	C561.698853,679.456665 570.324829,674.774963 573.415710,664.713867 
z"/>
<path fill="#E5E3DF" opacity="1.000000" stroke="none" 
	d="
M759.121704,670.159119 
	C767.918091,651.978821 789.711548,641.385010 809.901001,648.477539 
	C812.168274,649.273987 815.257324,647.731079 818.750671,647.140198 
	C817.157349,653.274414 815.554565,659.445190 813.951782,665.616028 
	C813.504150,665.582031 813.056580,665.548096 812.609009,665.514160 
	C812.374268,664.841431 811.953491,664.174377 811.932800,663.495117 
	C811.637329,653.781006 806.668945,648.219849 797.105408,649.025452 
	C791.577637,649.491211 785.204651,651.228027 781.053345,654.635803 
	C768.002075,665.349487 763.410583,679.807800 767.016174,696.315613 
	C769.639038,708.323975 781.736145,713.803467 792.740601,708.460876 
	C794.010986,707.844055 795.157410,706.230042 795.622559,704.832520 
	C797.145081,700.257996 798.421509,695.594177 799.616028,690.919617 
	C801.288391,684.375061 800.474060,683.187073 793.835815,681.734436 
	C793.254028,681.607117 792.710449,681.304993 792.259094,680.109070 
	C801.046509,680.109070 809.833923,680.109070 818.649841,680.109070 
	C818.589600,680.517212 818.574707,681.078125 818.495789,681.087280 
	C811.294678,681.922852 809.366577,687.279541 807.995483,693.183105 
	C807.468750,695.450806 806.333557,697.637390 806.152771,699.914612 
	C805.462280,708.611877 800.222595,712.450806 792.212585,713.070435 
	C786.940002,713.478394 781.461731,714.074341 776.345093,713.128479 
	C759.741943,710.059326 751.447449,694.636353 756.433594,677.005249 
	C757.064148,674.775635 758.107910,672.662842 759.121704,670.159119 
z"/>
<path fill="#E3E2DF" opacity="1.000000" stroke="none" 
	d="
M695.883301,707.583130 
	C697.893372,709.100159 699.798706,710.207092 703.056091,712.099487 
	C694.839783,712.099487 688.043152,712.099487 681.125366,712.099487 
	C681.279602,711.575989 681.310303,711.285889 681.375122,711.278076 
	C690.214539,710.210022 691.560974,703.089722 693.500183,696.384277 
	C696.969299,684.388428 700.547791,672.424255 704.016052,660.428223 
	C705.951111,653.735291 704.927307,652.066895 698.040100,650.098022 
	C697.160034,649.846497 696.317932,649.462097 695.458313,649.139160 
	C695.480591,648.637512 695.502869,648.135803 695.525208,647.634155 
	C700.790588,647.634155 706.070862,647.432617 711.307678,647.819153 
	C712.255188,647.889099 713.255310,650.280029 713.840027,651.754578 
	C718.875854,664.452576 723.816467,677.188232 728.801514,689.906433 
	C729.444153,691.545898 730.177979,693.149719 731.974304,694.710388 
	C735.618103,681.802063 739.393372,668.928467 742.826172,655.964294 
	C743.866882,652.034058 743.101807,651.543823 736.691406,648.945496 
	C739.482239,647.011292 752.303894,646.646118 757.908081,648.507507 
	C757.011658,649.035339 756.417053,649.659119 755.766113,649.724976 
	C750.870667,650.219727 748.565002,653.327454 747.292725,657.688904 
	C742.487976,674.159668 737.639709,690.617798 732.789246,707.075134 
	C732.149231,709.246521 731.402100,711.386292 730.704590,713.540710 
	C730.132446,713.644409 729.560364,713.748169 728.988220,713.851929 
	C722.225769,696.747986 715.463257,679.644043 708.214905,661.311157 
	C705.152100,671.761963 702.338257,680.963806 699.781433,690.236572 
	C698.240479,695.825012 697.099304,701.523743 695.883301,707.583130 
z"/>
<path fill="#E4E2DF" opacity="1.000000" stroke="none" 
	d="
M437.382935,664.554443 
	C436.280945,668.777405 435.302795,672.609680 434.218750,676.857056 
	C442.980713,678.238220 450.023468,677.210815 453.732300,667.954712 
	C454.293243,668.350037 454.854187,668.745422 455.415131,669.140808 
	C453.317291,676.996338 451.219452,684.851929 449.121643,692.707520 
	C448.471161,692.611755 447.820648,692.516052 447.170166,692.420288 
	C447.170166,690.916260 447.065002,689.403381 447.190033,687.909790 
	C447.555084,683.549316 445.425629,681.083435 441.253021,680.979614 
	C437.528198,680.886841 432.817719,678.665100 431.443420,685.212341 
	C430.147614,691.385620 428.028259,697.390015 426.188324,703.443604 
	C424.937195,707.559875 426.358704,709.271973 430.657623,709.424988 
	C442.596863,709.850037 453.370544,708.005188 459.684937,696.158142 
	C460.038605,695.494690 461.143951,695.231873 463.263123,693.971436 
	C461.022156,700.623169 459.327423,705.936401 457.370544,711.151306 
	C457.082886,711.917969 455.552948,712.662415 454.594055,712.667114 
	C439.265808,712.742676 423.936920,712.701538 408.608307,712.647705 
	C408.206116,712.646301 407.805511,712.202393 407.414703,711.971130 
	C407.556244,711.562622 407.626373,711.032532 407.762207,711.015137 
	C414.580597,710.141846 416.641602,705.253784 418.212616,699.438538 
	C421.598206,686.906799 425.367798,674.478638 429.002167,662.014404 
	C431.599152,653.107910 431.502960,652.792419 423.341034,647.952759 
	C439.545319,647.952759 454.833771,647.952759 470.887207,647.952759 
	C469.402527,653.101196 468.011292,657.925598 466.620026,662.750000 
	C466.141083,662.664734 465.662140,662.579407 465.183167,662.494080 
	C465.012482,661.772400 464.650024,661.036621 464.701630,660.331177 
	C465.096710,654.928772 462.179535,652.176575 457.246857,651.557434 
	C452.806274,651.000000 448.289978,650.813782 443.816589,650.909363 
	C442.662994,650.934082 440.965851,652.417175 440.520782,653.605713 
	C439.241364,657.022217 438.474823,660.630676 437.382935,664.554443 
z"/>
<path fill="#E4E3DF" opacity="1.000000" stroke="none" 
	d="
M291.624847,665.713074 
	C290.577148,669.594238 289.628448,673.080811 288.613220,676.812073 
	C297.519104,678.406433 304.616333,677.057983 308.515167,667.775452 
	C309.060028,668.212158 309.604858,668.648926 310.149719,669.085693 
	C307.939728,677.010437 305.729736,684.935181 303.519745,692.859863 
	C302.882782,692.756287 302.245819,692.652710 301.608887,692.549133 
	C301.665375,691.273132 301.655945,689.990173 301.790009,688.722351 
	C302.315338,683.755371 300.601410,681.502319 295.746674,680.862976 
	C288.053711,679.849854 287.536255,680.176758 285.387207,687.547363 
	C283.803833,692.977783 282.374329,698.457397 280.629150,703.834900 
	C279.281006,707.989136 281.008026,709.254211 284.861725,709.407898 
	C296.935791,709.889648 307.928925,708.155823 314.232605,696.004944 
	C314.557037,695.379578 315.357727,695.001404 315.936676,694.508179 
	C316.430084,694.715698 316.923492,694.923279 317.416901,695.130859 
	C315.446045,700.720581 313.535583,706.333435 311.410278,711.863831 
	C311.199127,712.413330 309.678741,712.700867 308.764923,712.703186 
	C293.783844,712.741882 278.802582,712.721558 263.821472,712.679016 
	C263.236359,712.677368 262.652222,712.322937 262.086578,712.138977 
	C262.204773,711.562500 262.237823,711.000122 262.334106,710.989014 
	C269.217865,710.199646 271.158508,705.270874 272.727936,699.456970 
	C276.281281,686.293884 280.354523,673.272095 284.045319,660.144775 
	C286.308228,652.096008 286.012146,651.730347 278.740601,648.137268 
	C294.030457,648.137268 309.320343,648.137268 325.303955,648.137268 
	C323.948700,653.115051 322.643524,657.908875 321.183868,663.270203 
	C319.955841,662.237854 319.339752,661.979187 319.295502,661.644836 
	C318.186554,653.263672 316.554718,651.675964 308.127075,650.900940 
	C295.920074,649.778442 295.919189,649.778259 292.743378,661.461731 
	C292.394592,662.744873 292.063263,664.032837 291.624847,665.713074 
z"/>
<path fill="#E3E2DF" opacity="1.000000" stroke="none" 
	d="
M506.173035,660.141418 
	C509.785889,655.258911 513.192932,650.667542 516.599915,646.076233 
	C517.088562,646.253235 517.577209,646.430298 518.065857,646.607300 
	C518.157349,647.750977 518.416260,648.909607 518.315125,650.036011 
	C516.871765,666.110718 515.345520,682.178040 513.912354,698.253662 
	C513.083130,707.554626 513.142090,707.559875 522.183228,712.078003 
	C512.440918,712.078003 504.037689,712.078003 495.634460,712.078003 
	C507.581146,709.527954 504.231476,700.086731 505.316559,691.815186 
	C499.647278,691.815186 494.533630,691.657837 489.443176,691.931519 
	C488.248779,691.995789 486.938110,693.348633 486.023346,694.405090 
	C484.394135,696.286743 483.004242,698.378906 481.552948,700.410645 
	C477.216461,706.481750 477.314087,707.287781 483.632843,712.114136 
	C476.365570,712.114136 469.921539,712.114136 462.743500,712.114136 
	C478.650360,703.417908 484.939178,687.380615 495.358246,674.943481 
	C499.197601,670.360413 502.448090,665.283936 506.173035,660.141418 
M506.185211,685.533264 
	C506.817322,678.948914 507.449463,672.364502 508.081573,665.780151 
	C507.659515,665.693115 507.237457,665.606079 506.815399,665.518982 
	C501.471893,672.932983 496.128387,680.346924 490.108032,688.700012 
	C495.574799,688.700012 499.550781,688.838989 503.503235,688.595642 
	C504.412903,688.539612 505.241791,687.171875 506.185211,685.533264 
z"/>
<path fill="#E5E3DF" opacity="1.000000" stroke="none" 
	d="
M374.226318,694.389832 
	C373.216492,697.981995 372.380951,701.202698 371.429382,704.388672 
	C370.446503,707.679565 371.917053,709.177673 375.027313,709.332397 
	C386.231995,709.889954 396.980438,709.407043 402.382416,696.987183 
	C402.828827,695.960815 403.957550,695.231201 404.769257,694.363770 
	C405.242371,694.606384 405.715485,694.849060 406.188629,695.091675 
	C404.224152,700.596680 402.321686,706.125671 400.209747,711.573486 
	C399.970001,712.191895 398.552948,712.678406 397.681366,712.679138 
	C382.874084,712.691589 368.066681,712.620361 353.259491,712.536987 
	C353.019501,712.535645 352.781708,712.152954 352.537201,711.943298 
	C352.604797,711.633362 352.641022,711.084290 352.738861,711.073059 
	C360.554657,710.176636 362.466797,704.323242 364.203430,697.969604 
	C367.666656,685.298828 371.518311,672.734741 375.067596,660.086792 
	C377.347717,651.961548 377.088196,651.633606 369.579773,648.196777 
	C378.292725,648.196777 387.005676,648.196777 395.820496,648.196777 
	C395.614502,648.664856 395.503693,649.199585 395.356903,649.209595 
	C388.031738,649.711487 385.578491,654.676270 383.913177,660.925415 
	C380.958344,672.013428 377.561584,682.983643 374.226318,694.389832 
z"/>
<path fill="#E6E4E0" opacity="1.000000" stroke="none" 
	d="
M665.583496,682.507935 
	C667.800598,674.937317 669.960876,667.768433 671.959412,660.554626 
	C674.292725,652.132874 674.050598,651.722412 666.617615,648.157043 
	C674.713989,648.157043 682.810303,648.157043 690.906677,648.157043 
	C681.720825,650.148315 681.882874,658.274841 679.894043,664.846497 
	C676.181519,677.113342 672.670227,689.440857 669.041321,701.733215 
	C667.095947,708.322815 667.067993,708.300964 673.479492,710.272034 
	C674.041992,710.444946 674.510864,710.922607 676.328735,712.115112 
	C666.367065,712.115112 657.843872,712.115112 649.039612,712.115112 
	C649.357910,711.514465 649.538879,710.815002 649.763733,710.800537 
	C657.332397,710.316284 659.344116,704.737305 660.977173,698.738953 
	C662.419312,693.442078 663.958801,688.171814 665.583496,682.507935 
z"/>
<path fill="#E5E3DF" opacity="1.000000" stroke="none" 
	d="
M335.058472,694.758850 
	C331.633423,694.758667 328.694122,694.758667 325.644684,694.758667 
	C325.566711,689.441711 327.122711,686.908264 332.565277,687.304993 
	C338.818939,687.760742 345.131348,687.410767 351.393311,687.410767 
	C351.634186,694.127625 351.069031,694.739136 345.010010,694.757385 
	C341.854767,694.766907 338.699493,694.759033 335.058472,694.758850 
z"/>
<path fill="#5267A9" opacity="1.000000" stroke="none" 
	d="
M596.038696,502.896759 
	C605.232605,455.376251 614.359924,408.283234 623.490906,361.190948 
	C624.632141,355.305176 625.967773,349.449982 626.872803,343.528564 
	C627.336975,340.491028 628.440308,339.284210 631.648987,339.313568 
	C646.979065,339.453674 662.311768,339.445190 677.642151,339.320770 
	C680.887878,339.294434 682.314148,340.331207 682.991028,343.635956 
	C694.554871,400.099579 706.239258,456.538544 717.905151,512.981262 
	C718.270325,514.747986 718.722534,516.496765 720.040771,518.301636 
	C721.975342,508.894257 723.748413,499.450256 725.871521,490.085632 
	C736.956543,441.191223 748.103088,392.310638 759.396423,343.464142 
	C759.760498,341.889313 761.926331,339.580170 763.280396,339.560608 
	C779.271667,339.329895 795.268372,339.468414 811.263550,339.532288 
	C811.557922,339.533447 811.851257,339.809479 812.760864,340.266907 
	C810.372925,348.878876 807.972351,357.634399 805.517456,366.374603 
	C785.249023,438.536285 764.948120,510.688843 744.762024,582.873535 
	C743.755432,586.472961 742.322144,587.988586 738.335815,587.911072 
	C724.842651,587.648743 711.339233,587.684631 697.844299,587.896912 
	C694.314148,587.952454 692.893738,586.877380 692.208801,583.404358 
	C680.478210,523.923889 668.634399,464.465729 656.812683,405.003265 
	C656.434082,403.098816 656.024841,401.200470 655.311890,397.768646 
	C654.443787,400.179443 653.975220,401.108429 653.774048,402.092072 
	C641.459900,462.308563 629.136475,522.523193 616.948303,582.765198 
	C616.187256,586.526733 614.876221,588.001160 610.818726,587.912659 
	C598.159729,587.636353 585.489197,587.700623 572.826843,587.884827 
	C569.435913,587.934143 567.903259,587.001038 566.929016,583.552917 
	C544.331726,503.568817 521.598694,423.623077 498.901672,343.667114 
	C498.595459,342.588409 498.428375,341.470184 498.072693,339.784149 
	C500.007202,339.629028 501.588562,339.395050 503.170380,339.392029 
	C518.001831,339.363892 532.835510,339.517242 547.663269,339.283630 
	C551.789795,339.218628 553.410278,340.496582 554.300171,344.600006 
	C566.514343,400.921875 578.914917,457.203308 591.271606,513.494263 
	C591.553650,514.779236 591.858276,516.059265 593.219360,517.497437 
	C594.137268,512.773071 595.055237,508.048767 596.038696,502.896759 
z"/>
<path fill="#5267A9" opacity="1.000000" stroke="none" 
	d="
M456.287964,361.726074 
	C469.338837,376.270721 474.942413,393.192322 475.316315,412.440552 
	C473.988464,412.591064 473.034943,412.791931 472.081146,412.793335 
	C457.918793,412.814270 443.756378,412.793060 429.594055,412.825409 
	C427.294800,412.830658 425.404968,412.794861 424.912537,409.751709 
	C421.280365,387.305939 406.191895,378.271881 385.588440,375.970276 
	C371.166473,374.359253 356.991364,375.181244 343.816010,382.415924 
	C331.997192,388.905701 326.314178,404.119598 331.687347,415.858398 
	C334.139893,421.216400 338.132782,425.489197 343.782837,427.096771 
	C363.309875,432.652710 382.984619,437.687317 402.539642,443.147827 
	C416.949432,447.171631 431.780304,450.304962 445.504028,456.036682 
	C472.054504,467.125458 483.107361,489.462036 483.780823,516.947693 
	C484.501526,546.359985 464.946777,573.954529 435.630402,584.678528 
	C399.515625,597.889343 362.795044,597.636658 327.148163,583.414612 
	C298.048035,571.804565 281.223297,549.568298 278.590057,517.651123 
	C278.414429,515.522583 278.567169,513.366943 278.567169,510.761993 
	C280.097687,510.627991 281.533691,510.396027 282.970154,510.393005 
	C296.299408,510.365051 309.630127,510.481873 322.957062,510.304169 
	C326.396240,510.258331 327.921936,511.173492 328.599670,514.763977 
	C332.588593,535.895813 342.014313,545.497131 363.047546,549.505615 
	C379.168121,552.577820 395.297180,551.952087 410.984802,547.036377 
	C422.606720,543.394653 431.341400,536.486511 433.375671,523.424255 
	C435.219910,511.582367 431.006165,502.059021 419.713226,498.112762 
	C403.893097,492.584503 387.659546,488.117584 371.397797,484.007874 
	C353.653870,479.523560 335.590454,476.445465 318.578003,469.182587 
	C293.924896,458.657806 282.297577,439.950958 280.992157,413.574341 
	C279.274628,378.871582 299.547394,348.028595 336.854187,337.354858 
	C364.423187,329.467194 392.213623,329.540619 419.534363,338.655701 
	C433.391083,343.278748 445.947083,350.548676 456.287964,361.726074 
z"/>
<path fill="#576BAB" opacity="1.000000" stroke="none" 
	d="
M573.332642,665.104370 
	C570.324829,674.774963 561.698853,679.456665 552.120667,676.403381 
	C554.386780,668.552551 556.544434,660.632996 559.080383,652.836487 
	C559.409668,651.824097 562.001465,650.575195 563.009827,650.935303 
	C566.262024,652.096863 570.095215,653.285645 572.101868,655.762329 
	C573.734863,657.777954 573.064636,661.659668 573.332642,665.104370 
z"/>
<path fill="#5E71AD" opacity="1.000000" stroke="none" 
	d="
M506.146545,685.970520 
	C505.241791,687.171875 504.412903,688.539612 503.503235,688.595642 
	C499.550781,688.838989 495.574799,688.700012 490.108032,688.700012 
	C496.128387,680.346924 501.471893,672.932983 506.815399,665.518982 
	C507.237457,665.606079 507.659515,665.693115 508.081573,665.780151 
	C507.449463,672.364502 506.817322,678.948914 506.146545,685.970520 
z"/>
</svg>