<svg version="1.1" id="Layer_1" xmlns="http://www.w3.org/2000/svg" xmlns:xlink="http://www.w3.org/1999/xlink" x="0px" y="0px"
	 width="100%" viewBox="0 0 512 512" enable-background="new 0 0 512 512" xml:space="preserve">
<path fill="#000000" opacity="1.000000" stroke="none" 
	d="
M1.000000,447.000000 
	C1.000000,298.378662 1.000000,149.757339 1.000000,1.068001 
	C171.569275,1.068001 342.138580,1.068001 513.000000,1.068001 
	C513.000000,149.357285 513.000000,297.714752 512.531494,446.536072 
	C505.413940,446.978638 498.764862,446.957336 492.073059,446.473907 
	C491.969482,440.334351 491.908661,434.656860 491.917419,428.516357 
	C491.991302,339.140808 492.035370,250.228256 491.961823,161.315811 
	C491.949158,145.991791 479.389099,132.932404 463.544678,132.983490 
	C452.059113,133.020523 440.573059,132.908340 429.211731,132.554611 
	C440.764099,124.294632 443.971161,109.510796 435.643555,98.489067 
	C432.151367,93.867096 426.784912,90.258469 421.606079,87.387947 
	C405.017212,78.193077 388.122833,69.548912 371.336853,60.710270 
	C339.672699,44.037518 308.091980,27.202822 276.289215,10.798656 
	C263.722443,4.316598 250.431625,4.295668 237.828171,10.728687 
	C215.840027,21.951805 194.153381,33.764950 172.318954,45.290203 
	C152.199295,55.910328 132.036896,66.449471 111.922928,77.080315 
	C103.325890,81.624107 94.815575,86.331657 86.244629,90.925194 
	C78.052200,95.315865 74.319778,102.268608 73.965874,111.415024 
	C73.607246,120.683319 78.077065,127.341461 84.453659,132.925415 
	C72.670708,132.991959 61.344933,132.853867 50.024235,133.034317 
	C34.631756,133.279678 22.114479,144.969772 22.082170,161.221481 
	C21.908028,248.812073 21.998713,336.403198 22.005768,423.994141 
	C22.005901,425.655853 22.100927,427.317566 22.074593,429.443176 
	C21.997505,435.509552 21.997505,441.111969 21.997505,447.000000 
	C14.610922,447.000000 7.805461,447.000000 1.000000,447.000000 
z"/>
<path fill="#DFEAEF" opacity="1.000000" stroke="none" 
	d="
M492.115814,446.935974 
	C498.764862,446.957336 505.413940,446.978638 512.531494,446.999969 
	C513.000000,457.020905 513.000000,467.041779 512.693665,477.221069 
	C512.003052,477.697144 511.388824,477.944733 511.267487,478.342621 
	C505.086090,498.615173 486.771881,507.978912 467.643646,507.983978 
	C342.929077,508.016968 218.214523,508.002319 93.499954,507.992859 
	C90.339973,507.992645 87.180016,507.872772 83.937897,507.486084 
	C82.891647,506.790527 81.927536,506.417633 80.577530,506.023376 
	C68.543785,503.633972 60.131695,496.597412 53.740307,487.042755 
	C47.330692,477.460815 46.831760,466.457062 47.008507,455.363831 
	C47.126225,447.975647 47.032413,447.971558 54.174454,447.971436 
	C100.502541,447.970642 146.831085,448.065979 193.158066,447.839539 
	C198.391861,447.813965 200.314285,449.326111 201.114807,454.441132 
	C203.102951,467.144348 215.011749,476.991974 227.775208,477.023438 
	C247.106216,477.071136 266.437500,477.065918 285.768555,477.027710 
	C299.468719,477.000641 310.682312,467.607574 312.975403,453.971252 
	C313.730377,449.481628 315.333069,447.808014 320.320587,447.828644 
	C375.146790,448.055542 429.974243,447.984344 484.801331,447.927155 
	C487.239807,447.924622 489.677673,447.281006 492.115814,446.935974 
z"/>
<path fill="#B5D1D5" opacity="1.000000" stroke="none" 
	d="
M492.073059,446.473877 
	C489.677673,447.281006 487.239807,447.924622 484.801331,447.927155 
	C429.974243,447.984344 375.146790,448.055542 320.320587,447.828644 
	C315.333069,447.808014 313.730377,449.481628 312.975403,453.971252 
	C310.682312,467.607574 299.468719,477.000641 285.768555,477.027710 
	C266.437500,477.065918 247.106216,477.071136 227.775208,477.023438 
	C215.011749,476.991974 203.102951,467.144348 201.114807,454.441132 
	C200.314285,449.326111 198.391861,447.813965 193.158066,447.839539 
	C146.831085,448.065979 100.502541,447.970642 54.174454,447.971436 
	C47.032413,447.971558 47.126225,447.975647 47.008507,455.363831 
	C46.831760,466.457062 47.330692,477.460815 53.740307,487.042755 
	C60.131695,496.597412 68.543785,503.633972 80.587929,506.324463 
	C80.992424,507.049591 81.000626,507.452209 80.583366,507.934998 
	C78.430588,507.961853 76.703278,507.908539 74.648865,507.605103 
	C69.574806,507.237091 64.824966,506.959534 60.081657,507.044891 
	C55.059219,507.135284 50.042988,507.570862 44.624275,507.936035 
	C43.142639,507.963165 42.060768,507.909973 40.842537,507.668274 
	C40.463585,507.279999 40.193001,507.130981 39.462822,507.018127 
	C37.068523,506.897064 34.993019,507.169708 33.160969,506.624420 
	C18.630322,502.299286 7.729199,493.928436 2.867353,478.948029 
	C2.715246,478.479370 1.643183,478.309296 0.999998,478.000000 
	C1.000000,467.979095 1.000000,457.958221 1.000000,447.468658 
	C7.805461,447.000000 14.610922,447.000000 21.997505,447.000000 
	C21.997505,441.111969 21.997505,435.509552 22.533428,429.455200 
	C179.328842,428.995300 335.588348,428.987335 491.847839,428.979401 
	C491.908661,434.656860 491.969482,440.334351 492.073059,446.473877 
z"/>
<path fill="#000000" opacity="1.000000" stroke="none" 
	d="
M74.975960,507.855225 
	C76.703278,507.908539 78.430588,507.961853 80.958069,508.000183 
	C82.512177,507.926361 83.266106,507.867523 84.020042,507.808685 
	C87.180016,507.872772 90.339973,507.992645 93.499954,507.992859 
	C218.214523,508.002319 342.929077,508.016968 467.643646,507.983978 
	C486.771881,507.978912 505.086090,498.615173 511.267487,478.342621 
	C511.388824,477.944733 512.003052,477.697144 512.693665,477.689697 
	C513.000000,489.657898 513.000000,501.315796 513.000000,512.955933 
	C342.333313,512.955933 171.666656,512.955933 1.000000,512.955933 
	C1.000000,501.586975 1.000000,490.262146 0.999998,478.468658 
	C1.643183,478.309296 2.715246,478.479370 2.867353,478.948029 
	C7.729199,493.928436 18.630322,502.299286 33.160969,506.624420 
	C34.993019,507.169708 37.068523,506.897064 39.544079,507.273743 
	C40.364254,507.648285 40.671577,507.752533 40.978901,507.856750 
	C42.060768,507.909973 43.142639,507.963165 45.087517,508.001068 
	C55.625671,507.942230 65.300812,507.898712 74.975960,507.855225 
z"/>
<path fill="#665E66" opacity="1.000000" stroke="none" 
	d="
M84.913109,132.862747 
	C78.077065,127.341461 73.607246,120.683319 73.965874,111.415024 
	C74.319778,102.268608 78.052200,95.315865 86.244629,90.925194 
	C94.815575,86.331657 103.325890,81.624107 111.922928,77.080315 
	C132.036896,66.449471 152.199295,55.910328 172.318954,45.290203 
	C194.153381,33.764950 215.840027,21.951805 237.828171,10.728687 
	C250.431625,4.295668 263.722443,4.316598 276.289215,10.798656 
	C308.091980,27.202822 339.672699,44.037518 371.336853,60.710270 
	C388.122833,69.548912 405.017212,78.193077 421.606079,87.387947 
	C426.784912,90.258469 432.151367,93.867096 435.643555,98.489067 
	C443.971161,109.510796 440.764099,124.294632 428.831726,132.611481 
	C427.682404,133.100067 426.957794,133.074081 426.404266,133.369034 
	C407.880585,143.239304 389.373260,153.140167 370.518982,163.082977 
	C363.189331,166.819672 356.249512,170.599167 349.206177,174.174591 
	C342.488281,177.584793 335.662415,180.782272 328.588074,183.919846 
	C312.803650,166.120178 297.317963,148.471481 281.825348,130.828873 
	C275.562012,123.696327 269.326935,116.538231 262.995026,109.466934 
	C259.417267,105.471375 256.065735,104.831894 253.112183,107.310654 
	C250.105972,109.833611 250.238647,113.237427 253.521118,117.347008 
	C254.352158,118.387459 255.201599,119.414963 256.079956,120.415611 
	C275.743774,142.816330 295.428314,165.198929 315.035797,187.648849 
	C316.031219,188.788589 316.371277,190.500717 316.654694,191.991516 
	C305.236877,197.780548 293.997375,203.201126 283.169067,209.346207 
	C267.989044,217.960892 252.596390,220.222565 236.610123,212.201630 
	C225.620987,206.687943 214.840759,200.756226 203.992157,194.964508 
	C190.947021,188.000137 177.961700,180.923004 164.885117,174.018494 
	C157.701187,170.225357 150.382843,166.686752 142.914032,162.751480 
	C125.294640,153.234756 107.898308,143.977127 90.459122,134.800949 
	C88.745071,133.899048 86.768059,133.496872 84.913109,132.862747 
z"/>
<path fill="#DFEAEF" opacity="1.000000" stroke="none" 
	d="
M84.453659,132.925415 
	C86.768059,133.496872 88.745071,133.899048 90.459122,134.800949 
	C107.898308,143.977127 125.294640,153.234756 142.860687,163.177124 
	C142.975037,165.600067 142.931656,167.315445 142.430069,169.072235 
	C115.975861,169.124969 89.978844,169.256989 63.984779,169.037689 
	C59.243580,168.997711 58.162235,170.530106 58.169144,175.004242 
	C58.288074,251.992493 58.289120,328.981018 58.166969,405.969238 
	C58.159824,410.471893 59.289478,411.922211 63.998451,411.917603 
	C192.645645,411.791840 321.293030,411.794006 449.940247,411.911133 
	C454.535187,411.915314 455.852814,410.651276 455.844879,406.035889 
	C455.712250,329.047668 455.703949,252.059097 455.857513,175.070969 
	C455.867432,170.091934 454.256653,169.016190 449.588654,169.046768 
	C423.428619,169.218185 397.266510,169.071518 371.056702,168.606873 
	C370.960022,166.465729 370.911804,164.751175 370.863556,163.036591 
	C389.373260,153.140167 407.880585,143.239304 426.404266,133.369034 
	C426.957794,133.074081 427.682404,133.100067 428.707214,132.919556 
	C440.573059,132.908340 452.059113,133.020523 463.544678,132.983490 
	C479.389099,132.932404 491.949158,145.991791 491.961823,161.315811 
	C492.035370,250.228256 491.991302,339.140808 491.917419,428.516357 
	C335.588348,428.987335 179.328842,428.995300 22.610514,428.991272 
	C22.100927,427.317566 22.005901,425.655853 22.005768,423.994141 
	C21.998713,336.403198 21.908028,248.812073 22.082170,161.221481 
	C22.114479,144.969772 34.631756,133.279678 50.024235,133.034317 
	C61.344933,132.853867 72.670708,132.991959 84.453659,132.925415 
z"/>
<path fill="#C9DEE1" opacity="1.000000" stroke="none" 
	d="
M83.937897,507.486084 
	C83.266106,507.867523 82.512177,507.926361 81.383530,507.920044 
	C81.000626,507.452209 80.992424,507.049591 80.973824,506.345825 
	C81.927536,506.417633 82.891647,506.790527 83.937897,507.486084 
z"/>
<path fill="#C9DEE1" opacity="1.000000" stroke="none" 
	d="
M74.648865,507.605103 
	C65.300812,507.898712 55.625671,507.942230 45.487289,507.920746 
	C50.042988,507.570862 55.059219,507.135284 60.081657,507.044891 
	C64.824966,506.959534 69.574806,507.237091 74.648865,507.605103 
z"/>
<path fill="#C9DEE1" opacity="1.000000" stroke="none" 
	d="
M40.842537,507.668274 
	C40.671577,507.752533 40.364254,507.648285 39.975674,507.288452 
	C40.193001,507.130981 40.463585,507.279999 40.842537,507.668274 
z"/>
<path fill="#454045" opacity="1.000000" stroke="none" 
	d="
M142.888275,169.030838 
	C142.931656,167.315445 142.975037,165.600067 143.071762,163.459030 
	C150.382843,166.686752 157.701187,170.225357 164.885117,174.018494 
	C177.961700,180.923004 190.947021,188.000137 203.992157,194.964508 
	C214.840759,200.756226 225.620987,206.687943 236.610123,212.201630 
	C252.596390,220.222565 267.989044,217.960892 283.169067,209.346207 
	C293.997375,203.201126 305.236877,197.780548 316.706726,192.462585 
	C317.063080,198.252258 317.005646,203.616013 316.602448,209.037598 
	C303.344574,215.969254 290.523010,223.020844 277.490845,229.659058 
	C267.579498,234.707581 256.804382,236.825470 246.214600,233.006622 
	C236.603027,229.540543 227.597046,224.379822 218.365845,219.880493 
	C213.420319,217.470001 208.562866,214.878830 202.835159,211.943588 
	C203.386536,215.165176 203.661850,217.107056 204.056244,219.024414 
	C206.853958,232.625717 213.341095,244.228073 223.493195,253.637970 
	C234.940338,264.248260 249.299789,269.045471 263.936737,273.169769 
	C270.587524,275.043793 277.231018,276.943695 283.450073,278.878418 
	C269.928406,279.297791 256.817322,280.276672 243.744492,279.906067 
	C222.434296,279.301880 201.852341,274.334473 182.464371,265.619720 
	C156.588699,253.988800 143.526718,233.388947 143.035751,204.994263 
	C142.828522,193.009186 142.928131,181.018814 142.888275,169.030838 
z"/>
<path fill="#E5AF4E" opacity="1.000000" stroke="none" 
	d="
M316.948181,208.979752 
	C317.005646,203.616013 317.063080,198.252258 317.068512,192.417435 
	C316.371277,190.500717 316.031219,188.788589 315.035797,187.648849 
	C295.428314,165.198929 275.743774,142.816330 256.079956,120.415611 
	C255.201599,119.414963 254.352158,118.387459 253.521118,117.347008 
	C250.238647,113.237427 250.105972,109.833611 253.112183,107.310654 
	C256.065735,104.831894 259.417267,105.471375 262.995026,109.466934 
	C269.326935,116.538231 275.562012,123.696327 281.825348,130.828873 
	C297.317963,148.471481 312.803650,166.120178 328.665588,184.323639 
	C329.336151,190.279877 329.633270,195.678925 329.882996,201.536743 
	C329.888916,223.347336 329.942200,244.699142 329.951508,266.514771 
	C329.796234,274.015961 329.684906,281.053375 329.199585,288.043488 
	C325.004578,288.027618 321.183502,288.059021 317.280090,287.624390 
	C317.120941,281.784454 317.044159,276.410492 317.022217,270.566864 
	C317.034119,249.724701 316.991150,229.352219 316.948181,208.979752 
z"/>
<path fill="#464146" opacity="1.000000" stroke="none" 
	d="
M329.930389,201.077957 
	C329.633270,195.678925 329.336151,190.279877 328.961548,184.477051 
	C335.662415,180.782272 342.488281,177.584793 349.206177,174.174591 
	C356.249512,170.599167 363.189331,166.819672 370.518982,163.082977 
	C370.911804,164.751175 370.960022,166.465729 371.002075,169.056519 
	C370.907227,173.575745 370.818634,177.218719 370.380371,180.907898 
	C368.541809,181.621384 367.022461,182.228699 365.568726,182.965424 
	C353.682373,188.989288 341.808228,195.037292 329.930389,201.077957 
z"/>
<path fill="#6FC17E" opacity="1.000000" stroke="none" 
	d="
M370.730042,180.861710 
	C370.818634,177.218719 370.907227,173.575745 371.050476,169.483109 
	C397.266510,169.071518 423.428619,169.218185 449.588654,169.046768 
	C454.256653,169.016190 455.867432,170.091934 455.857513,175.070969 
	C455.703949,252.059097 455.712250,329.047668 455.844879,406.035889 
	C455.852814,410.651276 454.535187,411.915314 449.940247,411.911133 
	C321.293030,411.794006 192.645645,411.791840 63.998451,411.917603 
	C59.289478,411.922211 58.159824,410.471893 58.166969,405.969238 
	C58.289120,328.981018 58.288074,251.992493 58.169144,175.004242 
	C58.162235,170.530106 59.243580,168.997711 63.984779,169.037689 
	C89.978844,169.256989 115.975861,169.124969 142.430054,169.072235 
	C142.928131,181.018814 142.828522,193.009186 143.035751,204.994263 
	C143.526718,233.388947 156.588699,253.988800 182.464371,265.619720 
	C201.852341,274.334473 222.434296,279.301880 243.744492,279.906067 
	C256.817322,280.276672 269.928406,279.297791 283.855682,278.898010 
	C295.448486,276.259613 306.207916,273.648071 316.967346,271.036560 
	C317.044159,276.410492 317.120941,281.784454 317.123932,287.940308 
	C311.890503,297.428589 306.459656,305.988586 301.655945,314.887115 
	C297.714355,322.188629 299.594696,330.945068 305.281952,336.992676 
	C311.068970,343.146332 318.455444,343.145203 326.047272,343.056427 
	C343.081360,342.857239 352.417419,327.278107 344.102051,312.463715 
	C339.474152,304.218750 334.430084,296.207428 329.573578,288.090790 
	C329.684906,281.053375 329.796234,274.015961 330.309082,266.454163 
	C351.006836,257.162811 364.813843,242.319473 368.776947,220.523666 
	C371.124725,207.611542 370.189209,194.102402 370.730042,180.861710 
M111.501846,367.966888 
	C107.836578,367.966980 104.171303,367.964203 100.506035,367.967712 
	C92.679993,367.975250 89.014450,370.550079 89.133644,375.951477 
	C89.237289,380.648102 93.029747,383.086426 100.288132,383.087006 
	C147.769562,383.090759 195.250992,383.089874 242.732422,383.087555 
	C245.897644,383.087402 249.067337,383.163727 252.226959,383.023895 
	C256.063293,382.854126 258.375122,380.800110 259.000336,376.961182 
	C259.656677,372.931213 257.860138,370.022430 254.349625,368.495514 
	C252.630966,367.747925 250.430450,367.986084 248.447906,367.985046 
	C203.132309,367.961670 157.816696,367.966919 111.501846,367.966888 
M101.684708,335.092010 
	C100.518822,335.093536 99.350517,335.046692 98.187477,335.104980 
	C93.126717,335.358398 88.964035,339.107086 89.116089,343.240112 
	C89.276253,347.593689 92.824989,350.677979 98.025528,350.945618 
	C99.188423,351.005463 100.356842,350.959564 101.522720,350.959564 
	C126.838974,350.959930 152.155228,350.960449 177.471481,350.959473 
	C184.966415,350.959167 192.463547,351.063293 199.955475,350.912170 
	C204.631760,350.817841 207.689575,347.877319 207.982269,343.655365 
	C208.305725,338.989868 205.609299,336.553375 201.526489,335.459045 
	C199.800613,334.996429 197.897766,335.106049 196.075272,335.104980 
	C164.929626,335.086823 133.783981,335.092102 101.684708,335.092010 
z"/>
<path fill="#665E66" opacity="1.000000" stroke="none" 
	d="
M317.022217,270.566833 
	C306.207916,273.648071 295.448486,276.259613 284.283447,278.851501 
	C277.231018,276.943695 270.587524,275.043793 263.936737,273.169769 
	C249.299789,269.045471 234.940338,264.248260 223.493195,253.637970 
	C213.341095,244.228073 206.853958,232.625717 204.056244,219.024414 
	C203.661850,217.107056 203.386536,215.165176 202.835159,211.943588 
	C208.562866,214.878830 213.420319,217.470001 218.365845,219.880493 
	C227.597046,224.379822 236.603027,229.540543 246.214600,233.006622 
	C256.804382,236.825470 267.579498,234.707581 277.490845,229.659058 
	C290.523010,223.020844 303.344574,215.969254 316.602478,209.037598 
	C316.991150,229.352219 317.034119,249.724701 317.022217,270.566833 
z"/>
<path fill="#665E66" opacity="1.000000" stroke="none" 
	d="
M370.380371,180.907898 
	C370.189209,194.102402 371.124725,207.611542 368.776947,220.523666 
	C364.813843,242.319473 351.006836,257.162811 330.353027,265.990387 
	C329.942200,244.699142 329.888916,223.347336 329.882996,201.536743 
	C341.808228,195.037292 353.682373,188.989288 365.568726,182.965424 
	C367.022461,182.228699 368.541809,181.621384 370.380371,180.907898 
z"/>
<path fill="#F3DD45" opacity="1.000000" stroke="none" 
	d="
M329.199585,288.043488 
	C334.430084,296.207428 339.474152,304.218750 344.102051,312.463715 
	C352.417419,327.278107 343.081360,342.857239 326.047272,343.056427 
	C318.455444,343.145203 311.068970,343.146332 305.281952,336.992676 
	C299.594696,330.945068 297.714355,322.188629 301.655945,314.887115 
	C306.459656,305.988586 311.890503,297.428589 317.206299,288.406311 
	C321.183502,288.059021 325.004578,288.027618 329.199585,288.043488 
z"/>
<path fill="#665E66" opacity="1.000000" stroke="none" 
	d="
M112.001465,367.966858 
	C157.816696,367.966919 203.132309,367.961670 248.447906,367.985046 
	C250.430450,367.986084 252.630966,367.747925 254.349625,368.495514 
	C257.860138,370.022430 259.656677,372.931213 259.000336,376.961182 
	C258.375122,380.800110 256.063293,382.854126 252.226959,383.023895 
	C249.067337,383.163727 245.897644,383.087402 242.732422,383.087555 
	C195.250992,383.089874 147.769562,383.090759 100.288132,383.087006 
	C93.029747,383.086426 89.237289,380.648102 89.133644,375.951477 
	C89.014450,370.550079 92.679993,367.975250 100.506035,367.967712 
	C104.171303,367.964203 107.836578,367.966980 112.001465,367.966858 
z"/>
<path fill="#666267" opacity="1.000000" stroke="none" 
	d="
M102.161514,335.092102 
	C133.783981,335.092102 164.929626,335.086823 196.075272,335.104980 
	C197.897766,335.106049 199.800613,334.996429 201.526489,335.459045 
	C205.609299,336.553375 208.305725,338.989868 207.982269,343.655365 
	C207.689575,347.877319 204.631760,350.817841 199.955475,350.912170 
	C192.463547,351.063293 184.966415,350.959167 177.471481,350.959473 
	C152.155228,350.960449 126.838974,350.959930 101.522720,350.959564 
	C100.356842,350.959564 99.188423,351.005463 98.025528,350.945618 
	C92.824989,350.677979 89.276253,347.593689 89.116089,343.240112 
	C88.964035,339.107086 93.126717,335.358398 98.187477,335.104980 
	C99.350517,335.046692 100.518822,335.093536 102.161514,335.092102 
z"/>
</svg>